# xmcd
#
# Track frame offsets:
#	183
#	13925
#	25540
#	39228
#	51305
#	66270
#	81138
#	91888
#	99940
#	111250
#	123835
#	135448
#
# Disc length: 1954 seconds
#
# Revision: 2
# Processed by: cddbd v1.5.2PL0 Copyright (c) Steve Scherf et al.
# Submitted via: audiograbber 1.83.01
#
DISCID=8e07a00c
DTITLE=The Great Vocalists - The Great Vocalists
DYEAR=1980
DGENRE=Vocal
TTITLE0=Bing Crosby - Sorry
TTITLE1=Bing Crosby - Love Somebody
TTITLE2=Perry Como - Dance Ballerina Dance
TTITLE3=Perry Como - To know you is to love you
TTITLE4=Ella Fitzgerald - Someone to watch over me
TTITLE5=Ella Fitzgerald - But not for Me
TTITLE6=Frank Sinatra - Night and Day
TTITLE7=Frank Sinatra - My happyness
TTITLE8=Dean Martin - Innamorata
TTITLE9=Dean Martin - I can't give you anything but love
TTITLE10=Nat King Cole - Too marvellous for words
TTITLE11=Nat King Cole - you're the cream in my coffee
EXTD=
EXTT0=
EXTT1=
EXTT2=
EXTT3=
EXTT4=
EXTT5=
EXTT6=
EXTT7=
EXTT8=
EXTT9=
EXTT10=
EXTT11=
PLAYORDER=
